<?xml version="1.0" standalone="no"?>
<!DOCTYPE svg PUBLIC "-//W3C//DTD SVG 20010904//EN"
 "http://www.w3.org/TR/2001/REC-SVG-20010904/DTD/svg10.dtd">
<svg version="1.0" xmlns="http://www.w3.org/2000/svg"
 width="824.000000pt" height="254.000000pt" viewBox="0 0 824.000000 254.000000"
 preserveAspectRatio="xMidYMid meet">

<g transform="translate(0.000000,254.000000) scale(0.100000,-0.100000)"
fill="#000000" stroke="none">
<path d="M1392 1813 c-188 -80 -341 -148 -339 -149 3 -4 729 146 735 151 8 7
-31 145 -41 145 -7 -1 -166 -67 -355 -147z"/>
<path d="M1405 1705 l-350 -63 368 -1 367 -1 0 65 c0 56 -3 65 -17 64 -10 0
-175 -29 -368 -64z"/>
<path d="M2290 1689 c0 -17 -4 -28 -10 -24 -5 3 -10 15 -10 26 0 16 -7 19 -41
19 -39 0 -41 -1 -35 -25 5 -18 2 -25 -9 -25 -9 0 -15 -9 -15 -25 0 -24 3 -25
60 -25 l60 0 0 -50 0 -50 45 0 45 0 0 50 0 50 55 0 c52 0 55 1 55 25 0 14 -5
25 -11 25 -7 0 -9 10 -5 25 6 23 4 25 -32 25 -32 0 -40 -4 -49 -27 l-11 -28
-1 33 c-1 31 -2 32 -46 32 -44 0 -45 -1 -45 -31z"/>
<path d="M2526 1673 c-9 -26 -16 -50 -16 -55 0 -4 29 -8 65 -8 l65 0 0 -30 c0
-17 -7 -47 -16 -68 l-16 -37 -10 25 c-6 14 -13 39 -17 55 -6 26 -12 30 -43 33
l-36 3 9 -45 c4 -25 17 -63 28 -85 l21 -40 -30 -25 c-24 -20 -30 -33 -30 -65
0 -23 4 -41 8 -41 5 0 27 16 49 35 23 19 44 35 48 35 3 0 27 -16 53 -36 l47
-36 3 42 c3 35 -2 48 -23 70 l-27 28 23 43 c15 30 24 68 27 122 l5 77 -52 0
c-50 0 -51 1 -45 25 6 24 4 25 -34 25 -39 0 -41 -1 -56 -47z"/>
<path d="M2787 1700 c-3 -12 -14 -20 -26 -20 -17 0 -21 -6 -21 -30 0 -25 4
-30 25 -30 24 0 25 -2 25 -75 0 -61 -5 -85 -25 -125 l-25 -49 22 -3 c30 -4 33
-24 9 -45 -33 -28 -26 -43 18 -43 58 0 71 18 71 100 0 46 6 83 20 115 11 26
20 49 20 51 0 2 -9 4 -20 4 -16 0 -20 7 -20 35 0 24 5 35 15 35 10 0 15 10 15
29 0 16 -6 31 -15 35 -8 3 -15 12 -15 21 0 25 -66 20 -73 -5z"/>
<path d="M2910 1523 c0 -109 -3 -208 -6 -220 -6 -21 -3 -23 30 -23 49 0 56 21
56 171 l0 119 129 0 c156 0 161 3 161 91 l0 59 -185 0 -185 0 0 -197z m290
127 l0 -30 -105 0 -105 0 0 30 0 30 105 0 105 0 0 -30z"/>
<path d="M3337 1685 c15 -32 20 -35 60 -35 l43 0 -17 35 c-15 32 -20 35 -60
35 l-43 0 17 -35z"/>
<path d="M3477 1685 l-17 -35 141 0 c136 0 140 -1 134 -20 -6 -18 -2 -20 33
-20 35 0 41 4 50 28 5 15 13 35 17 45 7 16 -3 17 -124 17 -81 0 -131 4 -131
10 0 6 -19 10 -43 10 -40 0 -45 -3 -60 -35z"/>
<path d="M4105 1700 c6 -19 2 -20 -99 -20 l-106 0 0 -30 0 -30 255 0 255 0 0
30 0 30 -105 0 c-94 0 -105 2 -115 20 -8 15 -21 20 -51 20 -36 0 -40 -2 -34
-20z"/>
<path d="M4655 1700 c6 -19 2 -20 -99 -20 l-106 0 0 -30 0 -30 255 0 255 0 0
30 0 30 -105 0 c-94 0 -105 2 -115 20 -8 15 -21 20 -51 20 -36 0 -40 -2 -34
-20z"/>
<path d="M5010 1631 c0 -60 4 -91 12 -93 9 -3 7 -15 -5 -46 l-17 -42 223 -2
222 -3 3 -29 c7 -55 -5 -76 -42 -76 -25 0 -35 -6 -44 -25 -7 -14 -12 -28 -12
-30 0 -3 33 -5 73 -5 103 0 112 11 112 134 l0 91 -208 3 c-160 2 -208 5 -204
15 3 9 52 13 184 15 216 3 215 2 221 113 l4 69 -261 0 -261 0 0 -89z m430 29
c0 -6 -65 -10 -175 -10 -110 0 -175 4 -175 10 0 6 65 10 175 10 110 0 175 -4
175 -10z m0 -60 c0 -6 -65 -10 -175 -10 -110 0 -175 4 -175 10 0 6 65 10 175
10 110 0 175 -4 175 -10z"/>
<path d="M5587 1681 c-10 -23 -17 -44 -17 -46 0 -3 18 -5 40 -5 27 0 43 5 46
15 4 8 14 15 24 15 10 0 20 -7 24 -15 3 -10 19 -15 42 -15 28 0 35 3 30 15 -4
11 1 15 19 15 20 0 25 5 25 25 0 23 -4 25 -42 25 -24 0 -73 3 -109 6 l-66 7
-16 -42z"/>
<path d="M5860 1681 c-11 -22 -20 -43 -20 -46 0 -3 18 -5 40 -5 27 0 43 5 46
15 4 8 15 15 25 15 11 0 22 -7 25 -15 4 -9 19 -15 41 -15 27 0 34 3 29 15 -4
11 2 15 20 15 25 0 43 25 28 39 -5 5 -55 12 -111 15 l-102 7 -21 -40z"/>
<path d="M6130 1690 c0 -27 3 -30 30 -30 30 0 30 -1 30 -55 0 -52 -1 -55 -25
-55 -21 0 -25 -5 -25 -30 0 -25 4 -30 25 -30 24 0 25 -2 25 -75 l0 -75 -30 0
c-27 0 -30 -3 -30 -30 l0 -30 100 0 100 0 0 30 c0 27 -3 30 -30 30 l-30 0 0
75 c0 73 1 75 25 75 21 0 25 5 25 30 0 25 -4 30 -25 30 -24 0 -25 3 -25 55 0
54 0 55 30 55 27 0 30 3 30 30 l0 30 -100 0 -100 0 0 -30z"/>
<path d="M6350 1600 l0 -119 57 -3 c46 -2 59 -7 61 -20 3 -16 -5 -18 -57 -18
-58 0 -61 -1 -61 -25 0 -22 4 -24 58 -27 54 -3 57 -4 60 -30 3 -28 3 -28 -57
-28 -58 0 -61 -1 -61 -25 l0 -25 160 0 160 0 0 25 c0 24 -3 25 -61 25 -60 0
-60 0 -57 28 3 25 7 27 56 30 48 3 52 5 52 28 0 23 -3 24 -55 24 -48 0 -55 2
-55 20 0 17 7 20 38 20 63 0 76 24 80 141 l4 99 -161 0 -161 0 0 -120z m120
50 c0 -13 -7 -20 -20 -20 -13 0 -20 7 -20 20 0 13 7 20 20 20 13 0 20 -7 20
-20z m120 0 c0 -13 -7 -20 -20 -20 -13 0 -20 7 -20 20 0 13 7 20 20 20 13 0
20 -7 20 -20z m-122 -98 c3 -17 -2 -22 -17 -22 -16 0 -21 6 -21 26 0 33 33 30
38 -4z m120 6 c-5 -34 -38 -37 -38 -4 0 20 5 26 21 26 15 0 20 -5 17 -22z"/>
<path d="M6720 1690 l0 -30 100 0 100 0 0 -105 0 -105 -110 0 -110 0 0 -30 0
-30 110 0 110 0 0 -55 0 -55 45 0 45 0 0 55 0 55 110 0 110 0 0 30 0 30 -110
0 -110 0 0 105 0 105 100 0 100 0 0 30 0 30 -245 0 -245 0 0 -30z"/>
<path d="M7327 1629 c-32 -50 -57 -92 -55 -94 2 -2 119 -5 260 -7 l257 -4 -32
56 c-17 30 -38 67 -47 82 -13 24 -22 28 -58 28 l-43 0 26 -43 c14 -24 25 -47
25 -50 0 -4 -58 -7 -130 -7 -86 0 -130 4 -130 11 0 6 13 29 28 52 47 70 47 67
0 67 l-43 0 -58 -91z"/>
<path d="M3580 1621 c0 -6 -28 -29 -62 -53 l-61 -43 52 -3 c44 -3 58 1 86 22
19 15 36 26 40 26 3 0 23 -12 44 -26 32 -21 48 -25 92 -22 l54 3 -53 33 c-29
17 -64 32 -79 32 -21 0 -24 3 -15 12 22 22 13 28 -43 28 -30 0 -55 -4 -55 -9z"/>
<path d="M6764 1593 c19 -103 24 -113 61 -113 19 0 35 3 35 8 0 6 -11 56 -25
120 -4 18 -12 22 -41 22 l-36 0 6 -37z"/>
<path d="M7100 1593 c-5 -21 -13 -55 -16 -75 -7 -38 -7 -38 29 -38 l35 0 16
69 c9 39 16 72 16 75 0 4 -16 6 -35 6 -31 0 -35 -3 -45 -37z"/>
<path d="M3341 1583 c-8 -21 -16 -44 -18 -50 -4 -9 7 -13 36 -13 40 0 43 2 61
46 11 25 20 48 20 50 0 2 -19 4 -43 4 -41 0 -44 -2 -56 -37z"/>
<path d="M5678 1613 l-108 -4 0 -39 c0 -33 3 -40 20 -40 19 0 20 -7 20 -125
l0 -125 206 0 c122 0 213 4 225 10 15 8 19 22 19 60 l0 50 -180 0 c-113 0
-180 4 -180 10 0 6 61 10 164 10 187 0 196 3 196 71 0 32 3 39 20 39 13 0 20
7 20 19 0 27 -25 49 -63 55 -51 8 -242 12 -359 9z m342 -63 c0 -6 -68 -10
-185 -10 -117 0 -185 4 -185 10 0 6 68 10 185 10 117 0 185 -4 185 -10z m-42
-67 c3 -10 -29 -13 -137 -13 -120 0 -141 2 -141 15 0 13 20 15 137 13 98 -2
138 -6 141 -15z m0 -145 c-3 -10 -43 -14 -141 -16 -117 -2 -137 0 -137 13 0
13 21 15 141 15 108 0 140 -3 137 -12z"/>
<path d="M3940 1603 c0 -4 10 -17 22 -30 l21 -23 -41 0 -42 0 0 -102 c-1 -70
-5 -111 -15 -128 -21 -37 -19 -40 29 -40 52 0 56 7 65 125 l6 80 213 3 212 2
0 30 c0 29 -2 30 -47 30 l-47 0 29 30 29 30 -55 0 c-48 0 -59 -4 -84 -30 -25
-27 -35 -30 -87 -30 -52 0 -59 3 -80 30 -19 27 -27 30 -75 30 -29 0 -53 -3
-53 -7z"/>
<path d="M4470 1548 c-12 -29 -24 -59 -27 -65 -4 -9 8 -13 41 -13 35 0 56 -7
91 -32 25 -18 42 -35 38 -39 -5 -4 -46 -19 -93 -32 -82 -24 -85 -26 -88 -56
l-3 -31 43 6 c24 3 81 20 128 36 47 17 94 30 105 30 11 0 58 -14 105 -30 47
-16 102 -33 123 -36 37 -7 37 -7 37 26 0 32 -1 33 -68 50 -37 9 -80 21 -96 27
l-29 12 49 34 c39 28 58 35 96 35 l47 0 -29 63 c-28 62 -28 62 -74 65 l-45 3
14 -35 c20 -46 19 -56 -4 -56 -10 0 -42 -16 -71 -35 -29 -19 -55 -35 -59 -35
-4 0 -30 16 -57 35 -27 19 -59 35 -71 35 -27 0 -27 0 -8 47 8 19 15 37 15 39
0 2 -20 4 -44 4 -43 0 -44 -1 -66 -52z"/>
<path d="M2182 1550 l-10 -40 34 0 c28 0 36 5 44 26 17 44 13 54 -24 54 -31 0
-34 -3 -44 -40z"/>
<path d="M2412 1550 c10 -37 13 -40 45 -40 34 0 34 1 28 33 -10 45 -12 47 -50
47 l-33 0 10 -40z"/>
<path d="M3110 1541 c0 -6 -21 -11 -47 -13 -41 -3 -48 -6 -51 -25 -3 -21 0
-23 47 -23 44 0 51 -3 51 -20 0 -17 -7 -20 -50 -20 l-51 0 3 -77 3 -78 111 0
c138 0 144 4 144 91 l0 64 -45 0 c-38 0 -45 3 -45 20 0 17 7 20 51 20 47 0 50
2 47 23 -3 19 -10 22 -50 25 -27 2 -48 7 -48 13 0 5 -16 9 -35 9 -19 0 -35 -4
-35 -9z m80 -176 l0 -35 -50 0 -50 0 0 35 0 35 50 0 50 0 0 -35z"/>
<path d="M3330 1425 l0 -75 40 0 40 0 0 50 0 50 163 -2 162 -3 3 -44 3 -43
-34 21 c-19 11 -46 21 -61 21 -19 0 -26 5 -26 20 0 17 -7 20 -50 20 -46 0 -50
-2 -50 -23 0 -20 -17 -33 -107 -80 l-108 -56 78 -1 c70 0 84 4 155 39 l77 39
49 -39 c45 -36 53 -39 114 -39 l66 0 -50 35 -49 35 44 0 43 0 -4 55 c-8 96 -4
95 -270 95 l-228 0 0 -75z"/>
<path d="M7280 1390 l0 -110 225 0 226 0 24 25 c23 22 25 32 25 110 l0 85
-250 0 -250 0 0 -110z m410 12 c0 -21 -5 -43 -12 -50 -8 -8 -58 -12 -160 -12
l-148 0 0 50 0 50 160 0 160 0 0 -38z"/>
<path d="M2180 1476 c-13 -13 -13 -56 0 -56 6 0 10 -16 10 -35 0 -21 5 -35 13
-36 6 0 2 -5 -10 -11 -15 -7 -23 -20 -23 -35 0 -24 1 -24 58 -16 73 10 143 10
210 -1 52 -8 52 -8 52 18 0 18 -7 30 -22 36 -13 5 -17 9 -10 9 7 1 12 15 12
36 0 19 5 35 10 35 11 0 14 59 3 61 -47 7 -295 3 -303 -5z m220 -74 c0 -25
-54 -41 -97 -29 -22 7 -33 16 -33 28 0 17 8 19 65 19 56 0 65 -2 65 -18z"/>
<path d="M5035 1350 l-35 -70 48 0 48 0 32 65 c18 36 32 68 32 70 0 3 -20 5
-45 5 l-45 0 -35 -70z"/>
<path d="M5212 1355 c-18 -36 -32 -68 -32 -70 0 -3 20 -5 45 -5 l45 0 35 70
35 70 -48 0 -48 0 -32 -65z"/>
<path d="M765 1341 c-3 -6 -19 -11 -34 -11 -50 0 -129 -48 -157 -95 -34 -59
-227 -661 -219 -685 9 -28 247 -251 264 -248 8 2 26 38 41 82 14 44 33 83 41
87 133 68 272 179 320 255 l21 34 108 0 109 0 11 43 c7 23 29 104 51 179 21
75 39 156 39 180 -1 63 -31 122 -81 155 l-42 28 -233 3 c-157 2 -234 0 -239
-7z"/>
<path d="M2420 1050 c0 -18 7 -20 70 -20 40 0 70 -4 70 -10 0 -6 -30 -10 -70
-10 l-70 0 0 -115 0 -115 159 0 c132 0 162 3 175 16 12 12 16 38 16 115 l0 99
-76 0 c-47 0 -73 4 -69 10 3 6 37 10 76 10 62 0 69 2 69 20 0 19 -7 20 -175
20 -168 0 -175 -1 -175 -20z m80 -155 c0 -68 -2 -75 -20 -75 -18 0 -20 7 -20
75 0 68 2 75 20 75 18 0 20 -7 20 -75z m130 60 c0 -11 -11 -15 -40 -15 -29 0
-40 4 -40 15 0 11 11 15 40 15 29 0 40 -4 40 -15z m90 -60 c0 -68 -2 -75 -20
-75 -18 0 -20 7 -20 75 0 68 2 75 20 75 18 0 20 -7 20 -75z m-90 0 c0 -11 -11
-15 -40 -15 -29 0 -40 4 -40 15 0 11 11 15 40 15 29 0 40 -4 40 -15z m0 -60
c0 -11 -11 -15 -40 -15 -29 0 -40 4 -40 15 0 11 11 15 40 15 29 0 40 -4 40
-15z"/>
<path d="M2906 1055 c-3 -8 -12 -15 -21 -15 -13 0 -15 -20 -15 -130 l0 -130
25 0 25 0 0 110 0 110 120 0 120 0 0 -90 c0 -51 -4 -90 -10 -90 -5 0 -14 -9
-20 -20 -10 -18 -8 -20 24 -20 57 0 66 18 66 130 0 131 1 130 -145 130 -98 0
-114 2 -109 15 5 11 -1 15 -24 15 -17 0 -32 -6 -36 -15z"/>
<path d="M3403 1063 c-64 -3 -73 -6 -73 -23 0 -19 8 -20 175 -20 168 0 175 1
175 20 0 17 -7 20 -52 20 -29 0 -75 2 -103 4 -27 2 -83 1 -122 -1z"/>
<path d="M3935 1060 c3 -5 -24 -10 -67 -12 l-73 -3 -3 -34 c-2 -20 2 -37 10
-42 10 -7 10 -9 1 -9 -7 0 -13 -9 -13 -20 0 -11 5 -20 10 -20 6 0 10 -10 10
-23 0 -17 10 -28 38 -42 l37 -19 -47 -9 c-38 -7 -48 -13 -48 -29 0 -17 5 -19
48 -13 26 4 64 11 84 16 25 7 63 5 124 -6 108 -19 104 -19 104 4 0 15 -11 21
-47 28 l-48 9 33 17 c23 13 32 25 32 42 0 16 6 25 15 25 8 0 15 9 15 20 0 12
-7 20 -17 20 -17 1 -17 1 0 11 23 13 22 34 -3 59 -15 15 -33 20 -74 20 -30 0
-58 5 -61 10 -3 6 -20 10 -36 10 -17 0 -28 -4 -24 -10z m150 -60 c3 -5 1 -10
-4 -10 -6 0 -11 -7 -11 -15 0 -12 -18 -15 -100 -15 -82 0 -100 3 -100 15 0 8
-4 15 -10 15 -5 0 -10 5 -10 10 0 6 45 10 114 10 66 0 117 -4 121 -10z m-15
-94 c0 -8 -21 -21 -50 -31 -47 -15 -53 -15 -100 0 -29 10 -50 23 -50 31 0 11
20 14 100 14 80 0 100 -3 100 -14z"/>
<path d="M4270 1030 c-25 -49 -25 -50 5 -50 17 0 29 8 37 25 11 24 15 25 103
25 88 0 94 -1 109 -25 10 -16 26 -25 41 -25 30 0 30 1 5 50 l-20 40 -130 0
-130 0 -20 -40z"/>
<path d="M4711 1031 l-21 -41 30 0 c18 0 33 6 36 15 4 8 13 15 20 15 8 0 17
-7 20 -15 4 -8 17 -15 31 -15 18 0 24 4 19 15 -3 8 -1 15 4 15 6 0 10 9 10 20
0 15 -7 20 -27 20 -16 0 -45 3 -65 6 -35 6 -37 5 -57 -35z"/>
<path d="M4888 1034 l-16 -39 26 -3 c15 -2 29 2 34 12 11 20 34 21 42 1 3 -8
17 -15 30 -15 18 0 24 4 20 15 -4 8 -1 15 5 15 6 0 11 9 11 20 0 14 -7 20 -24
20 -13 0 -43 3 -68 6 -45 6 -45 6 -60 -32z"/>
<path d="M5186 1008 c-31 -75 -32 -78 -6 -78 l20 0 -20 -40 c-11 -21 -20 -44
-20 -50 0 -6 24 -10 55 -10 48 0 55 2 55 20 0 13 -7 20 -20 20 -20 0 -20 1 -4
38 9 20 18 43 21 50 3 7 -3 12 -16 12 -21 0 -21 1 -5 38 9 20 18 43 21 50 3 8
-5 12 -24 12 -27 0 -33 -6 -57 -62z"/>
<path d="M5280 1055 c0 -11 17 -15 75 -17 l74 -3 -19 -42 -19 -43 24 0 c23 0
24 -2 13 -25 -8 -18 -15 -22 -22 -15 -10 10 -56 14 -56 5 0 -3 10 -19 21 -35
21 -27 21 -41 4 -82 -6 -14 -2 -18 17 -18 13 0 29 5 36 12 9 9 12 9 12 0 0 -7
13 -12 30 -12 33 0 32 4 -5 55 -12 18 -12 25 4 61 33 74 35 84 12 84 -26 0
-26 1 -1 50 l20 40 -110 0 c-90 0 -110 -3 -110 -15z"/>
<path d="M5700 1050 c0 -11 -4 -20 -10 -20 -5 0 -10 7 -10 15 0 25 -47 19 -54
-7 -11 -43 -7 -48 34 -48 38 0 40 -2 40 -30 0 -25 4 -30 25 -30 21 0 25 5 25
30 0 28 2 30 40 30 33 0 40 3 40 20 0 11 -5 20 -11 20 -6 0 -9 7 -5 15 8 22
-40 20 -53 -2 -9 -16 -10 -16 -11 5 0 17 -6 22 -25 22 -18 0 -25 -5 -25 -20z"/>
<path d="M5850 1044 c-16 -40 -13 -44 30 -44 36 0 40 -3 40 -24 0 -57 -24 -75
-35 -26 -5 21 -13 30 -26 30 -24 0 -26 -38 -4 -79 13 -26 13 -30 -5 -46 -11
-10 -20 -24 -20 -32 0 -8 -4 -11 -10 -8 -14 9 -12 52 3 58 9 3 9 9 1 23 -9 15
-25 18 -103 19 -103 1 -108 -2 -93 -59 6 -21 7 -36 1 -36 -5 0 -9 -9 -9 -21 0
-21 6 -21 100 -6 3 1 27 -3 53 -7 43 -7 53 -4 89 19 l40 27 29 -21 c36 -27 39
-27 39 7 0 16 -8 32 -20 39 -19 13 -19 13 0 55 11 24 20 60 20 81 0 35 -2 37
-30 37 -23 0 -30 4 -30 20 0 32 -48 27 -60 -6z m-82 -186 c-3 -8 -21 -13 -43
-13 -22 0 -40 5 -42 13 -3 8 9 12 42 12 33 0 45 -4 43 -12z"/>
<path d="M6088 1049 c-22 -23 -23 -49 -3 -49 20 0 20 -75 1 -121 -12 -30 -12
-35 3 -46 15 -12 15 -14 -1 -24 -27 -15 -21 -29 12 -29 36 0 50 23 50 79 0 22
6 52 12 67 10 22 10 28 0 32 -15 5 -15 26 1 53 10 17 10 23 0 26 -7 3 -13 11
-13 19 0 20 -42 16 -62 -7z"/>
<path d="M6180 941 c0 -71 -3 -136 -6 -145 -5 -12 0 -16 19 -16 32 0 37 15 37
111 l0 79 83 0 c95 0 107 7 107 62 l0 38 -120 0 -120 0 0 -129z m188 82 c-3
-15 -16 -19 -71 -21 -62 -3 -67 -1 -67 18 0 18 6 20 71 20 62 0 70 -2 67 -17z"/>
<path d="M6530 1057 c0 -20 22 -37 47 -37 26 0 28 7 9 33 -15 20 -56 23 -56 4z"/>
<path d="M6630 1050 c-6 -10 -10 -21 -10 -24 0 -3 41 -6 90 -6 67 0 89 -3 88
-12 -2 -8 7 -13 21 -13 18 0 27 8 34 28 5 16 7 30 6 31 -2 2 -52 6 -112 9 -97
4 -108 3 -117 -13z"/>
<path d="M7116 1055 c5 -12 -6 -15 -65 -15 -64 0 -71 -2 -71 -20 0 -19 7 -20
165 -20 158 0 165 1 165 20 0 18 -7 20 -65 20 -49 0 -67 4 -71 15 -4 8 -19 15
-35 15 -21 0 -27 -4 -23 -15z"/>
<path d="M5290 928 c0 -57 -3 -113 -6 -125 -5 -19 -2 -23 15 -23 31 0 41 36
41 151 0 99 0 99 -25 99 l-25 0 0 -102z"/>
<path d="M3350 975 l0 -36 153 3 152 3 3 33 3 32 -155 0 -156 0 0 -35z m255
-5 c-3 -6 -50 -10 -106 -10 -59 0 -99 4 -99 10 0 6 42 10 106 10 67 0 103 -4
99 -10z"/>
<path d="M6690 1000 c0 -5 -17 -21 -37 -35 l-38 -25 35 0 c20 0 46 7 58 16 20
14 24 14 44 0 12 -9 38 -16 58 -16 33 1 34 1 15 16 -11 8 -32 18 -47 21 -17 3
-25 10 -21 19 4 10 -4 14 -31 14 -20 0 -36 -4 -36 -10z"/>
<path d="M6540 981 c-16 -31 -12 -41 15 -41 18 0 28 7 35 26 13 34 13 34 -15
34 -14 0 -29 -8 -35 -19z"/>
<path d="M7025 970 c18 -20 17 -20 -13 -20 l-32 0 0 -62 c0 -35 -3 -73 -6 -85
-5 -20 -2 -23 20 -23 31 0 46 29 46 91 l0 39 135 0 c128 0 135 1 135 20 0 15
-7 20 -27 20 -21 0 -24 3 -15 12 20 20 14 28 -21 28 -21 0 -41 -8 -52 -20 -11
-12 -31 -20 -51 -20 -23 0 -38 6 -46 20 -9 14 -24 20 -52 20 -38 0 -39 0 -21
-20z"/>
<path d="M4773 973 c-56 -3 -73 -7 -73 -18 0 -12 15 -15 70 -15 40 0 70 -4 70
-10 0 -6 -32 -10 -75 -10 -68 0 -75 -2 -75 -20 0 -19 7 -20 133 -22 l132 -2
-127 -3 c-105 -3 -128 -6 -128 -18 0 -12 21 -15 120 -15 73 0 120 -4 120 -10
0 -5 -7 -10 -15 -10 -8 0 -19 -9 -25 -20 -10 -19 -8 -20 33 -20 46 0 67 13 67
42 0 11 7 18 20 18 27 0 25 28 -2 33 l-23 4 23 2 c15 1 22 7 22 21 0 18 -7 20
-76 20 -47 0 -73 4 -69 10 3 6 37 10 76 10 55 0 69 3 69 15 0 11 -13 15 -54
15 -29 0 -73 2 -97 3 -24 2 -77 2 -116 0z"/>
<path d="M5630 971 c0 -5 -3 -16 -6 -25 -5 -12 0 -16 19 -16 18 0 26 6 29 25
4 21 1 25 -18 25 -13 0 -24 -4 -24 -9z"/>
<path d="M5770 972 c0 -26 14 -42 36 -42 20 0 22 3 15 23 -8 22 -51 38 -51 19z"/>
<path d="M2940 895 l0 -75 90 0 c104 0 110 5 110 94 l0 56 -100 0 -100 0 0
-75z m140 0 c0 -34 -1 -35 -40 -35 -39 0 -40 1 -40 35 0 34 1 35 40 35 39 0
40 -1 40 -35z"/>
<path d="M4260 945 c0 -12 14 -15 65 -15 58 0 65 -2 65 -20 0 -18 -7 -20 -60
-20 -47 0 -60 -3 -60 -15 0 -12 13 -15 60 -15 53 0 60 -2 60 -20 0 -18 -7 -20
-70 -20 -63 0 -70 -2 -70 -20 0 -19 7 -20 170 -20 163 0 170 1 170 20 0 18 -7
20 -70 20 -63 0 -70 2 -70 20 0 18 7 20 60 20 47 0 60 3 60 15 0 12 -13 15
-60 15 -53 0 -60 2 -60 20 0 18 7 20 65 20 51 0 65 3 65 15 0 13 -24 15 -160
15 -136 0 -160 -2 -160 -15z"/>
<path d="M6310 950 c0 -5 -16 -10 -35 -10 -24 0 -35 -5 -35 -15 0 -10 11 -15
35 -15 19 0 35 -4 35 -10 0 -5 -13 -10 -30 -10 -30 0 -30 -1 -30 -55 l0 -55
68 0 c40 0 73 5 80 12 7 7 12 31 12 55 0 41 -1 43 -31 43 -17 0 -28 4 -24 10
3 6 19 10 36 10 19 0 29 5 29 15 0 10 -11 15 -35 15 -19 0 -35 5 -35 10 0 6
-9 10 -20 10 -11 0 -20 -4 -20 -10z m50 -115 c0 -21 -5 -25 -30 -25 -25 0 -30
4 -30 25 0 21 5 25 30 25 25 0 30 -4 30 -25z"/>
<path d="M3330 850 c0 -68 1 -70 25 -70 24 0 25 3 25 55 l0 55 119 0 c99 0
120 -3 125 -16 11 -29 6 -49 -16 -69 l-23 -20 35 -3 c24 -3 38 2 47 14 16 22
17 96 1 112 -8 8 -62 12 -175 12 l-163 0 0 -70z"/>
<path d="M6530 875 c0 -41 2 -45 25 -45 21 0 25 5 25 30 0 28 2 30 39 30 35 0
38 -2 34 -21 -4 -12 -31 -33 -72 -54 l-66 -34 54 -1 c41 0 65 6 98 25 45 27
64 25 93 -9 8 -10 29 -16 57 -16 l44 0 -28 25 c-28 24 -28 24 -5 25 21 0 23 4
20 43 l-3 42 -157 3 -158 3 0 -46z m268 -19 c4 -29 4 -29 -22 -13 -14 9 -32
17 -41 17 -8 0 -15 7 -15 16 0 12 9 14 38 12 33 -3 37 -6 40 -32z"/>
<path d="M3400 840 l0 -41 98 3 97 3 3 38 3 37 -100 0 -101 0 0 -40z m150 0
c0 -5 -22 -10 -50 -10 -27 0 -50 5 -50 10 0 6 23 10 50 10 28 0 50 -4 50 -10z"/>
<path d="M4753 810 c14 -11 38 -20 53 -20 26 0 27 0 9 20 -11 13 -31 20 -53
20 l-35 0 26 -20z"/>
<path d="M5150 795 c0 -12 13 -15 60 -15 47 0 60 3 60 15 0 12 -13 15 -60 15
-47 0 -60 -3 -60 -15z"/>
</g>
</svg>
